<?xml version="1.0" encoding="utf-8"?>
<!-- Generator: Adobe Illustrator 16.0.4, SVG Export Plug-In . SVG Version: 6.00 Build 0)  -->
<!DOCTYPE svg PUBLIC "-//W3C//DTD SVG 1.1//EN" "http://www.w3.org/Graphics/SVG/1.1/DTD/svg11.dtd">
<svg version="1.1" xmlns="http://www.w3.org/2000/svg" xmlns:xlink="http://www.w3.org/1999/xlink" x="0px" y="0px"
	 width="357.121px" height="267.121px" viewBox="0 0 357.121 267.121" enable-background="new 0 0 357.121 267.121"
	 xml:space="preserve">
<g id="Layer_2" display="none">
</g>
<g id="Layer_3">
</g>
<g id="Layer_1">
</g>
<g id="Layer_4">
	<path fill="none" stroke="#697733" stroke-width="3" stroke-linecap="round" stroke-linejoin="round" stroke-miterlimit="10" d="
		M150.881,94.605c25.639,0,38.458-17.884,47.005-17.884c8.548,0,4.275,13.412,4.275,13.412l-25.642,26.828h4.273h56.312h34.188
		c4.72,0,8.545,4.001,8.545,8.939s-3.825,8.944-8.545,8.944h8.545c4.722,0,8.546,4.005,8.546,8.939c0,4.939-3.824,8.944-8.546,8.944
		h-17.091c4.72,0,8.546,4.001,8.546,8.94c0,4.942-3.826,8.943-8.546,8.943h-25.642c4.722,0,8.547,4.002,8.547,8.94
		s-3.825,8.944-8.547,8.944h-85.463v-0.76c-29.161-5.146-47.005-21.597-47.005-21.597v-49.18
		C104.637,116.962,137.367,94.605,150.881,94.605z"/>
	
		<line fill="none" stroke="#697733" stroke-width="3" stroke-linecap="round" stroke-linejoin="round" stroke-miterlimit="10" x1="271.292" y1="134.846" x2="194.371" y2="134.846"/>
	
		<line fill="none" stroke="#697733" stroke-width="3" stroke-linecap="round" stroke-linejoin="round" stroke-miterlimit="10" x1="262.746" y1="152.729" x2="194.371" y2="152.729"/>
	
		<line fill="none" stroke="#697733" stroke-width="3" stroke-linecap="round" stroke-linejoin="round" stroke-miterlimit="10" x1="237.104" y1="170.613" x2="194.371" y2="170.613"/>
	
		<path fill="#FEE37E" stroke="#697733" stroke-width="3.487" stroke-linecap="round" stroke-linejoin="round" stroke-miterlimit="10" d="
		M225.643,115.785c0,8.043,6.233,14.568,13.922,14.568c7.688,0,13.923-6.525,13.923-14.568s-13.923-21.85-13.923-21.85
		S225.643,107.742,225.643,115.785z"/>
	
		<path fill="#FEE37E" stroke="#697733" stroke-width="3.487" stroke-linecap="round" stroke-linejoin="round" stroke-miterlimit="10" d="
		M181.091,184.139c0,8.852,6.856,16.025,15.313,16.025c8.461,0,15.313-7.174,15.313-16.025c0-8.846-15.313-24.031-15.313-24.031
		S181.091,175.293,181.091,184.139z"/>
	
		<path fill="#FEE37E" stroke="#697733" stroke-width="2.8994" stroke-linecap="round" stroke-linejoin="round" stroke-miterlimit="10" d="
		M79.15,168.499c0,3.681,2.853,6.663,6.371,6.663h12.742c3.519,0,6.373-2.982,6.373-6.663v-53.331c0-3.681-2.854-6.668-6.373-6.668
		H85.521c-3.519,0-6.371,2.987-6.371,6.668V168.499z"/>
	
		<path fill="#FEE37E" stroke="#697733" stroke-width="3.487" stroke-linecap="round" stroke-linejoin="round" stroke-miterlimit="10" d="
		M233.875,181.092c0,22.088,12.833,39.996,28.668,39.996c15.837,0,28.673-17.908,28.673-39.996
		c0-22.093-12.836-39.997-28.673-39.997C246.708,141.095,233.875,158.999,233.875,181.092z"/>
	<path fill="none" stroke="#697733" stroke-width="3" stroke-linecap="round" stroke-linejoin="round" stroke-miterlimit="10" d="
		M269.505,149.487c-5.663,5.925-10.146,19.56-10.146,24.937c0,10.438,7.81,29.052-1.028,46.238"/>
	<path fill="none" stroke="#697733" stroke-width="3" stroke-linecap="round" stroke-linejoin="round" stroke-miterlimit="10" d="
		M272.542,154.422c-3.707,7.09-6.812,14.625-6.812,20.002c0,9.143,5.992,24.56,1.538,39.79"/>
</g>
<g id="Layer_5">
</g>
</svg>
