<?xml version="1.0" encoding="utf-8"?>
<!-- Generator: Adobe Illustrator 16.0.4, SVG Export Plug-In . SVG Version: 6.00 Build 0)  -->
<!DOCTYPE svg PUBLIC "-//W3C//DTD SVG 1.1//EN" "http://www.w3.org/Graphics/SVG/1.1/DTD/svg11.dtd">
<svg version="1.1" xmlns="http://www.w3.org/2000/svg" xmlns:xlink="http://www.w3.org/1999/xlink" x="0px" y="0px"
	 width="680.082px" height="621.044px" viewBox="0 0 680.082 621.044" enable-background="new 0 0 680.082 621.044"
	 xml:space="preserve">
<g id="Layer_2" display="none">
</g>
<g id="Layer_3">
</g>
<g id="Layer_1">
	<g opacity="0.2">
		
			<polygon fill="none" stroke="#9EC04A" stroke-width="3.0414" stroke-linecap="round" stroke-linejoin="round" stroke-miterlimit="10" points="
			298.657,232.889 298.657,315.889 354.157,315.889 354.157,248.889 362.157,237.889 354.157,233.223 		"/>
		<path fill="none" stroke="#9EC04A" stroke-width="3" stroke-linecap="round" stroke-linejoin="round" stroke-miterlimit="10" d="
			M346.491,222.223c0,0-34,0-40.333,0s-7,7-7,7h55c0,0-0.667-7-7-7"/>
		
			<polyline fill="none" stroke="#9EC04A" stroke-width="3.0414" stroke-linecap="round" stroke-linejoin="round" stroke-miterlimit="10" points="
			324.157,234.389 324.157,309.889 328.157,309.889 328.157,233.389 		"/>
		
			<line fill="none" stroke="#9EC04A" stroke-width="3.0414" stroke-linecap="round" stroke-linejoin="round" stroke-miterlimit="10" x1="303.657" y1="309.889" x2="349.657" y2="309.889"/>
		
			<polyline fill="none" stroke="#9EC04A" stroke-width="3.0414" stroke-linecap="round" stroke-linejoin="round" stroke-miterlimit="10" points="
			299.657,315.889 293.157,322.889 360.657,322.889 354.407,316.639 		"/>
		
			<polyline fill="none" stroke="#9EC04A" stroke-width="3.0414" stroke-linecap="round" stroke-linejoin="round" stroke-miterlimit="10" points="
			298.657,241.889 281.157,241.889 281.157,269.889 298.407,287.139 		"/>
	</g>
	
		<line opacity="0.2" fill="none" stroke="#9EC04A" stroke-width="6" stroke-linejoin="round" stroke-miterlimit="10" x1="298.991" y1="374.378" x2="352.324" y2="374.378"/>
	
		<line opacity="0.2" fill="none" stroke="#9EC04A" stroke-width="6" stroke-linejoin="round" stroke-miterlimit="10" x1="299.991" y1="178.711" x2="353.324" y2="178.711"/>
	<g opacity="0.2">
		
			<polygon fill="none" stroke="#9EC04A" stroke-width="3" stroke-linecap="round" stroke-linejoin="round" stroke-miterlimit="10" points="
			423.678,277.541 498.344,277.541 482.344,320.874 439.011,320.874 		"/>
		
			<polyline fill="none" stroke="#9EC04A" stroke-width="3" stroke-linecap="round" stroke-linejoin="round" stroke-miterlimit="10" points="
			495.011,286.207 511.011,286.207 501.678,308.874 487.011,308.874 		"/>
		
			<polyline fill="none" stroke="#9EC04A" stroke-width="3" stroke-linecap="round" stroke-linejoin="round" stroke-miterlimit="10" points="
			439.011,320.874 431.678,328.207 487.678,328.207 481.345,321.873 		"/>
		<path fill="none" stroke="#9EC04A" stroke-width="3" stroke-linecap="round" stroke-linejoin="round" stroke-miterlimit="10" d="
			M457.84,268.134v-6.361c0,0,0.071-5.271-5.271-5.271c-6.361,0-6.906-1.091-6.906-7.633"/>
		
			<line fill="none" stroke="#9EC04A" stroke-width="3" stroke-linecap="round" stroke-linejoin="round" stroke-miterlimit="10" x1="445.188" y1="244.325" x2="445.188" y2="237.237"/>
		<path fill="none" stroke="#9EC04A" stroke-width="3" stroke-linecap="round" stroke-linejoin="round" stroke-miterlimit="10" d="
			M469.185,273.134v-12.4c0,0,0.09-10.274-6.664-10.274c-8.043,0-8.732-2.127-8.732-14.88"/>
		
			<line fill="none" stroke="#9EC04A" stroke-width="3" stroke-linecap="round" stroke-linejoin="round" stroke-miterlimit="10" x1="453.788" y1="230.722" x2="453.788" y2="216.904"/>
	</g>
	<g opacity="0.2">
		
			<polygon fill="none" stroke="#9EC04A" stroke-width="3" stroke-linecap="round" stroke-linejoin="round" stroke-miterlimit="10" points="
			226.345,277.541 151.679,277.541 167.679,320.874 211.012,320.874 		"/>
		
			<polyline fill="none" stroke="#9EC04A" stroke-width="3" stroke-linecap="round" stroke-linejoin="round" stroke-miterlimit="10" points="
			155.012,286.207 139.012,286.207 148.345,308.874 163.012,308.874 		"/>
		
			<polyline fill="none" stroke="#9EC04A" stroke-width="3" stroke-linecap="round" stroke-linejoin="round" stroke-miterlimit="10" points="
			211.012,320.874 218.345,328.207 162.345,328.207 168.678,321.873 		"/>
		<path fill="none" stroke="#9EC04A" stroke-width="3" stroke-linecap="round" stroke-linejoin="round" stroke-miterlimit="10" d="
			M192.183,268.134v-6.361c0,0-0.071-5.271,5.271-5.271c6.361,0,6.906-1.091,6.906-7.633"/>
		
			<line fill="none" stroke="#9EC04A" stroke-width="3" stroke-linecap="round" stroke-linejoin="round" stroke-miterlimit="10" x1="204.834" y1="244.325" x2="204.834" y2="237.237"/>
		<path fill="none" stroke="#9EC04A" stroke-width="3" stroke-linecap="round" stroke-linejoin="round" stroke-miterlimit="10" d="
			M180.838,273.134v-12.4c0,0-0.09-10.274,6.664-10.274c8.043,0,8.732-2.127,8.732-14.88"/>
		
			<line fill="none" stroke="#9EC04A" stroke-width="3" stroke-linecap="round" stroke-linejoin="round" stroke-miterlimit="10" x1="196.234" y1="230.722" x2="196.234" y2="216.904"/>
	</g>
	<g opacity="0.2">
		
			<path fill="#FFFFFF" stroke="#9EC04A" stroke-width="4.2555" stroke-linecap="round" stroke-linejoin="round" stroke-miterlimit="10" d="
			M342.402,464.942c-10.666,10.666-26.768,17.102-38.15,8.47c-8.615-6.533-6.281-26.205,4.383-36.868
			c6.758-6.758,18.287-15.754,25.5-13c1.861,0.71,1.81,3.422,3.5,5c1.591,1.484,8.684-1.301,10.234,0.251
			C355.514,436.44,353.065,454.279,342.402,464.942z"/>
		
			<path fill="none" stroke="#9EC04A" stroke-width="2.5808" stroke-linecap="round" stroke-linejoin="round" stroke-miterlimit="10" d="
			M336.389,434.661c-0.116,5.089-4.135,13.045-6.496,15.407c-4.583,4.584-16.187,9.327-19.853,20.757"/>
		
			<path fill="none" stroke="#9EC04A" stroke-width="2.5808" stroke-linecap="round" stroke-linejoin="round" stroke-miterlimit="10" d="
			M332.888,435.496c-1.484,4.739-3.433,9.413-5.793,11.774c-4.016,4.015-13.417,8.153-18.149,16.798"/>
	</g>
	<g opacity="0.2">
		
			<line fill="none" stroke="#9EC04A" stroke-width="5.2639" stroke-linejoin="round" stroke-miterlimit="10" x1="314.765" y1="511.26" x2="336.551" y2="533.046"/>
		
			<line fill="none" stroke="#9EC04A" stroke-width="5.2639" stroke-linejoin="round" stroke-miterlimit="10" x1="336.551" y1="511.26" x2="314.765" y2="533.046"/>
	</g>
	<g opacity="0.2">
		
			<line fill="none" stroke="#9EC04A" stroke-width="5.2639" stroke-linejoin="round" stroke-miterlimit="10" x1="314.765" y1="20.636" x2="336.551" y2="42.423"/>
		
			<line fill="none" stroke="#9EC04A" stroke-width="5.2639" stroke-linejoin="round" stroke-miterlimit="10" x1="336.551" y1="20.636" x2="314.765" y2="42.423"/>
	</g>
	<g opacity="0.2">
		
			<line fill="none" stroke="#9EC04A" stroke-width="5.2639" stroke-linejoin="round" stroke-miterlimit="10" x1="541.013" y1="261.663" x2="562.799" y2="283.449"/>
		
			<line fill="none" stroke="#9EC04A" stroke-width="5.2639" stroke-linejoin="round" stroke-miterlimit="10" x1="562.799" y1="261.663" x2="541.013" y2="283.449"/>
	</g>
	<g opacity="0.2">
		
			<line fill="none" stroke="#9EC04A" stroke-width="5.2639" stroke-linejoin="round" stroke-miterlimit="10" x1="88.347" y1="261.663" x2="110.133" y2="283.449"/>
		
			<line fill="none" stroke="#9EC04A" stroke-width="5.2639" stroke-linejoin="round" stroke-miterlimit="10" x1="110.133" y1="261.663" x2="88.347" y2="283.449"/>
	</g>
	
		<line opacity="0.2" fill="none" stroke="#9EC04A" stroke-width="6" stroke-linejoin="round" stroke-miterlimit="10" x1="26.082" y1="272.556" x2="58.344" y2="272.556"/>
	
		<line opacity="0.2" fill="none" stroke="#9EC04A" stroke-width="6" stroke-linejoin="round" stroke-miterlimit="10" x1="592.082" y1="272.556" x2="624.344" y2="272.556"/>
	<g opacity="0.2">
		
			<polyline fill="none" stroke="#9EC04A" stroke-width="3" stroke-linecap="round" stroke-linejoin="round" stroke-miterlimit="10" points="
			158.451,517.006 129.56,488.527 100.67,517.006 88.288,504.802 54.954,537.662 		"/>
		
			<polygon fill="none" stroke="#9EC04A" stroke-width="3" stroke-linecap="round" stroke-linejoin="round" stroke-miterlimit="10" points="
			166.705,509.73 141.941,538.211 191.469,538.211 		"/>
		
			<polyline fill="none" stroke="#9EC04A" stroke-width="3" stroke-linecap="round" stroke-linejoin="round" stroke-miterlimit="10" points="
			117.18,500.732 125.434,504.802 129.56,500.732 133.688,504.802 141.941,500.732 		"/>
		
			<line fill="none" stroke="#9EC04A" stroke-width="3" stroke-linecap="round" stroke-linejoin="round" stroke-miterlimit="10" x1="53.045" y1="538.197" x2="144.423" y2="538.197"/>
		
			<circle fill="none" stroke="#9EC04A" stroke-width="2.2932" stroke-linecap="round" stroke-linejoin="round" stroke-miterlimit="10" cx="53.082" cy="481.043" r="7.006"/>
		
			<line fill="none" stroke="#9EC04A" stroke-width="2.2932" stroke-linecap="round" stroke-linejoin="round" stroke-miterlimit="10" x1="53.082" y1="450.238" x2="53.082" y2="466.291"/>
		
			<line fill="none" stroke="#9EC04A" stroke-width="2.2932" stroke-linecap="round" stroke-linejoin="round" stroke-miterlimit="10" x1="69.417" y1="467.231" x2="64.877" y2="471.771"/>
		
			<line fill="none" stroke="#9EC04A" stroke-width="2.2932" stroke-linecap="round" stroke-linejoin="round" stroke-miterlimit="10" x1="53.082" y1="495.186" x2="53.082" y2="511.238"/>
		
			<line fill="none" stroke="#9EC04A" stroke-width="2.2932" stroke-linecap="round" stroke-linejoin="round" stroke-miterlimit="10" x1="22.275" y1="481.044" x2="38.328" y2="481.044"/>
		
			<line fill="none" stroke="#9EC04A" stroke-width="2.2932" stroke-linecap="round" stroke-linejoin="round" stroke-miterlimit="10" x1="67.223" y1="481.044" x2="83.275" y2="481.044"/>
		
			<line fill="none" stroke="#9EC04A" stroke-width="2.2932" stroke-linecap="round" stroke-linejoin="round" stroke-miterlimit="10" x1="43.732" y1="493.374" x2="39.193" y2="497.914"/>
		
			<line fill="none" stroke="#9EC04A" stroke-width="2.2932" stroke-linecap="round" stroke-linejoin="round" stroke-miterlimit="10" x1="38.505" y1="467.46" x2="43.045" y2="472.001"/>
		
			<line fill="none" stroke="#9EC04A" stroke-width="2.2932" stroke-linecap="round" stroke-linejoin="round" stroke-miterlimit="10" x1="64.647" y1="493.145" x2="69.188" y2="497.685"/>
	</g>
	<g opacity="0.2">
		
			<polyline fill="none" stroke="#9EC04A" stroke-width="3" stroke-linecap="round" stroke-linejoin="round" stroke-miterlimit="10" points="
			499.062,517.006 527.954,488.527 556.844,517.006 569.226,504.802 602.56,537.662 		"/>
		
			<polygon fill="none" stroke="#9EC04A" stroke-width="3" stroke-linecap="round" stroke-linejoin="round" stroke-miterlimit="10" points="
			490.809,509.73 515.572,538.211 466.045,538.211 		"/>
		
			<polyline fill="none" stroke="#9EC04A" stroke-width="3" stroke-linecap="round" stroke-linejoin="round" stroke-miterlimit="10" points="
			540.334,500.732 532.08,504.802 527.954,500.732 523.826,504.802 515.572,500.732 		"/>
		
			<line fill="none" stroke="#9EC04A" stroke-width="3" stroke-linecap="round" stroke-linejoin="round" stroke-miterlimit="10" x1="604.469" y1="538.197" x2="513.091" y2="538.197"/>
		
			<circle fill="none" stroke="#9EC04A" stroke-width="2.2932" stroke-linecap="round" stroke-linejoin="round" stroke-miterlimit="10" cx="600.082" cy="480.043" r="7.006"/>
		
			<line fill="none" stroke="#9EC04A" stroke-width="2.2932" stroke-linecap="round" stroke-linejoin="round" stroke-miterlimit="10" x1="600.082" y1="449.238" x2="600.082" y2="465.291"/>
		
			<line fill="none" stroke="#9EC04A" stroke-width="2.2932" stroke-linecap="round" stroke-linejoin="round" stroke-miterlimit="10" x1="616.417" y1="466.231" x2="611.877" y2="470.771"/>
		
			<line fill="none" stroke="#9EC04A" stroke-width="2.2932" stroke-linecap="round" stroke-linejoin="round" stroke-miterlimit="10" x1="600.082" y1="494.186" x2="600.082" y2="510.238"/>
		
			<line fill="none" stroke="#9EC04A" stroke-width="2.2932" stroke-linecap="round" stroke-linejoin="round" stroke-miterlimit="10" x1="569.275" y1="480.044" x2="585.328" y2="480.044"/>
		
			<line fill="none" stroke="#9EC04A" stroke-width="2.2932" stroke-linecap="round" stroke-linejoin="round" stroke-miterlimit="10" x1="614.223" y1="480.044" x2="630.275" y2="480.044"/>
		
			<line fill="none" stroke="#9EC04A" stroke-width="2.2932" stroke-linecap="round" stroke-linejoin="round" stroke-miterlimit="10" x1="590.732" y1="492.374" x2="586.193" y2="496.914"/>
		
			<line fill="none" stroke="#9EC04A" stroke-width="2.2932" stroke-linecap="round" stroke-linejoin="round" stroke-miterlimit="10" x1="585.505" y1="466.46" x2="590.045" y2="471.001"/>
		
			<line fill="none" stroke="#9EC04A" stroke-width="2.2932" stroke-linecap="round" stroke-linejoin="round" stroke-miterlimit="10" x1="611.647" y1="492.145" x2="616.188" y2="496.685"/>
	</g>
	<g opacity="0.2">
		
			<path fill="#FFFFFF" stroke="#9EC04A" stroke-width="4.2555" stroke-linecap="round" stroke-linejoin="round" stroke-miterlimit="10" d="
			M342.402,85.85c-10.666-10.666-26.768-17.102-38.15-8.47c-8.615,6.533-6.281,26.205,4.383,36.868
			c6.758,6.758,18.287,15.754,25.5,13c1.861-0.71,1.81-3.422,3.5-5c1.591-1.484,8.684,1.301,10.234-0.251
			C355.514,114.352,353.065,96.513,342.402,85.85z"/>
		
			<path fill="none" stroke="#9EC04A" stroke-width="2.5808" stroke-linecap="round" stroke-linejoin="round" stroke-miterlimit="10" d="
			M336.389,116.131c-0.116-5.089-4.135-13.045-6.496-15.407c-4.583-4.584-16.187-9.327-19.853-20.757"/>
		
			<path fill="none" stroke="#9EC04A" stroke-width="2.5808" stroke-linecap="round" stroke-linejoin="round" stroke-miterlimit="10" d="
			M332.888,115.296c-1.484-4.739-3.433-9.413-5.793-11.774c-4.016-4.015-13.417-8.153-18.149-16.798"/>
	</g>
	<g opacity="0.2">
		
			<polygon fill="none" stroke="#9EC04A" stroke-width="3" stroke-linecap="round" stroke-linejoin="round" stroke-miterlimit="10" points="
			54.488,85.47 74.01,101.398 34.968,101.398 		"/>
		
			<polygon fill="#FFFFFF" stroke="#9EC04A" stroke-width="3" stroke-linecap="round" stroke-linejoin="round" stroke-miterlimit="10" points="
			68.871,101.492 138.968,101.492 128.286,92.146 118.939,92.146 104.253,66.109 108.926,61.436 97.243,63.439 88.898,61.77 
			84.893,62.771 75.547,61.436 79.719,65.609 53.516,101.324 		"/>
		
			<line fill="none" stroke="#9EC04A" stroke-width="3" stroke-linecap="round" stroke-linejoin="round" stroke-miterlimit="10" x1="100.582" y1="68.946" x2="102.584" y2="72.618"/>
		
			<line fill="#FFFFFF" stroke="#9EC04A" stroke-width="3" stroke-linecap="round" stroke-linejoin="round" stroke-miterlimit="10" x1="95.721" y1="68.946" x2="97.056" y2="76.957"/>
		
			<line fill="#FFFFFF" stroke="#9EC04A" stroke-width="3" stroke-linecap="round" stroke-linejoin="round" stroke-miterlimit="10" x1="91.193" y1="68.946" x2="91.193" y2="72.784"/>
		
			<line fill="#FFFFFF" stroke="#9EC04A" stroke-width="3" stroke-linecap="round" stroke-linejoin="round" stroke-miterlimit="10" x1="86.75" y1="68.946" x2="85.248" y2="77.459"/>
		
			<line fill="#FFFFFF" stroke="#9EC04A" stroke-width="3" stroke-linecap="round" stroke-linejoin="round" stroke-miterlimit="10" x1="81.722" y1="68.946" x2="79.886" y2="73.453"/>
		<path fill="none" stroke="#9EC04A" stroke-width="3" stroke-linecap="round" stroke-linejoin="round" stroke-miterlimit="10" d="
			M87.646,57.514v-3.489c0,0,0-3.695,4.506-3.695c3.506,0,2.379,0,2.379,0s4.631-0.411,4.631-3.799c0-4.413-5.006-4.104-5.006-4.104
			h-5.195c0,0-4.318-0.206-4.318-3.542"/>
		
			<line fill="none" stroke="#9EC04A" stroke-width="3" stroke-linecap="round" stroke-linejoin="round" stroke-miterlimit="10" x1="84.643" y1="34.933" x2="84.643" y2="31.853"/>
		<path fill="none" stroke="#9EC04A" stroke-width="3" stroke-linecap="round" stroke-linejoin="round" stroke-miterlimit="10" d="
			M98.336,59.892v-4.381c0,0-0.05-3.629,3.629-3.629c4.382,0,4.757-0.752,4.757-5.257"/>
		
			<line fill="none" stroke="#9EC04A" stroke-width="3" stroke-linecap="round" stroke-linejoin="round" stroke-miterlimit="10" x1="84.768" y1="28.098" x2="84.768" y2="26.596"/>
		
			<line fill="none" stroke="#9EC04A" stroke-width="3" stroke-linecap="round" stroke-linejoin="round" stroke-miterlimit="10" x1="107.049" y1="43.494" x2="107.049" y2="38.612"/>
	</g>
	<g opacity="0.2">
		
			<polygon fill="none" stroke="#9EC04A" stroke-width="3" stroke-linecap="round" stroke-linejoin="round" stroke-miterlimit="10" points="
			607.447,85.47 587.926,101.397 626.968,101.397 		"/>
		
			<polygon fill="#FFFFFF" stroke="#9EC04A" stroke-width="3" stroke-linecap="round" stroke-linejoin="round" stroke-miterlimit="10" points="
			593.064,101.492 522.968,101.492 533.649,92.146 542.996,92.146 557.683,66.109 553.01,61.437 564.692,63.439 573.037,61.771 
			577.043,62.771 586.389,61.437 582.217,65.608 608.42,101.324 		"/>
		
			<line fill="none" stroke="#9EC04A" stroke-width="3" stroke-linecap="round" stroke-linejoin="round" stroke-miterlimit="10" x1="561.354" y1="68.946" x2="559.352" y2="72.618"/>
		
			<line fill="#FFFFFF" stroke="#9EC04A" stroke-width="3" stroke-linecap="round" stroke-linejoin="round" stroke-miterlimit="10" x1="566.215" y1="68.946" x2="564.88" y2="76.957"/>
		
			<line fill="#FFFFFF" stroke="#9EC04A" stroke-width="3" stroke-linecap="round" stroke-linejoin="round" stroke-miterlimit="10" x1="570.742" y1="68.946" x2="570.742" y2="72.784"/>
		
			<line fill="#FFFFFF" stroke="#9EC04A" stroke-width="3" stroke-linecap="round" stroke-linejoin="round" stroke-miterlimit="10" x1="575.186" y1="68.946" x2="576.688" y2="77.459"/>
		
			<line fill="#FFFFFF" stroke="#9EC04A" stroke-width="3" stroke-linecap="round" stroke-linejoin="round" stroke-miterlimit="10" x1="580.214" y1="68.946" x2="582.05" y2="73.453"/>
		<path fill="none" stroke="#9EC04A" stroke-width="3" stroke-linecap="round" stroke-linejoin="round" stroke-miterlimit="10" d="
			M574.289,57.514v-3.489c0,0,0-3.695-4.506-3.695c-3.506,0-2.379,0-2.379,0s-4.631-0.41-4.631-3.799
			c0-4.412,5.006-4.104,5.006-4.104h5.195c0,0,4.318-0.206,4.318-3.542"/>
		
			<line fill="none" stroke="#9EC04A" stroke-width="3" stroke-linecap="round" stroke-linejoin="round" stroke-miterlimit="10" x1="577.293" y1="34.933" x2="577.293" y2="31.853"/>
		<path fill="none" stroke="#9EC04A" stroke-width="3" stroke-linecap="round" stroke-linejoin="round" stroke-miterlimit="10" d="
			M563.6,59.892v-4.381c0,0,0.05-3.629-3.629-3.629c-4.382,0-4.757-0.752-4.757-5.258"/>
		
			<line fill="none" stroke="#9EC04A" stroke-width="3" stroke-linecap="round" stroke-linejoin="round" stroke-miterlimit="10" x1="577.168" y1="28.099" x2="577.168" y2="26.596"/>
		
			<line fill="none" stroke="#9EC04A" stroke-width="3" stroke-linecap="round" stroke-linejoin="round" stroke-miterlimit="10" x1="554.887" y1="43.494" x2="554.887" y2="38.612"/>
	</g>
</g>
<g id="Layer_4">
	<g opacity="0.2">
		<path fill="none" stroke="#9EC04A" stroke-width="3" stroke-linecap="round" stroke-linejoin="round" stroke-miterlimit="10" d="
			M234.582,135.544c0,0,16.983,15.828,23.5,16c6.333,0.167,3-5,3-5s-20-8-29-30"/>
		<path fill="none" stroke="#9EC04A" stroke-width="3" stroke-linecap="round" stroke-linejoin="round" stroke-miterlimit="10" d="
			M144.946,142.661c13.87-1.287,21.138-16.064,21.138-16.064s-12.717-13.497-26.502,1.447
			c-13.786,14.943-19.426,17.476-18.432,18.294c35.029,28.889,51.959-12.422,51.959-12.422s28.473-15.373,46.473-12.373"/>
		<path fill="none" stroke="#9EC04A" stroke-width="3" stroke-linecap="round" stroke-linejoin="round" stroke-miterlimit="10" d="
			M200.582,43.544c-4.5,16.5-20.5,24-20.5,24s-12-17,9-30.5s20.221-22.875,21-21.5c27.5,48.5-23,57-23,57s12,30,32,34.5"/>
		
			<circle fill="none" stroke="#9EC04A" stroke-width="3" stroke-linecap="round" stroke-linejoin="round" stroke-miterlimit="10" cx="216.662" cy="89.68" r="17.057"/>
		
			<circle fill="#FFFFFF" stroke="#9EC04A" stroke-width="3" stroke-linecap="round" stroke-linejoin="round" stroke-miterlimit="10" cx="226.537" cy="121.999" r="21.545"/>
		
			<circle fill="#FFFFFF" stroke="#9EC04A" stroke-width="3" stroke-linecap="round" stroke-linejoin="round" stroke-miterlimit="10" cx="191.525" cy="110.328" r="22.443"/>
	</g>
	<g opacity="0.2">
		<path fill="none" stroke="#9EC04A" stroke-width="3" stroke-linecap="round" stroke-linejoin="round" stroke-miterlimit="10" d="
			M419.916,135.544c0,0-16.983,15.828-23.5,16c-6.333,0.167-3-5-3-5s20-8,29-30"/>
		<path fill="none" stroke="#9EC04A" stroke-width="3" stroke-linecap="round" stroke-linejoin="round" stroke-miterlimit="10" d="
			M509.552,142.661c-13.87-1.287-21.138-16.064-21.138-16.064s12.717-13.497,26.502,1.447
			c13.786,14.943,19.426,17.476,18.432,18.295c-35.029,28.889-51.959-12.422-51.959-12.422s-28.473-15.373-46.473-12.373"/>
		<path fill="none" stroke="#9EC04A" stroke-width="3" stroke-linecap="round" stroke-linejoin="round" stroke-miterlimit="10" d="
			M453.916,43.544c4.5,16.5,20.5,24,20.5,24s12-17-9-30.5s-20.221-22.875-21-21.5c-27.5,48.5,23,57,23,57s-12,30-32,34.5"/>
		
			<circle fill="none" stroke="#9EC04A" stroke-width="3" stroke-linecap="round" stroke-linejoin="round" stroke-miterlimit="10" cx="437.836" cy="89.68" r="17.057"/>
		
			<circle fill="#FFFFFF" stroke="#9EC04A" stroke-width="3" stroke-linecap="round" stroke-linejoin="round" stroke-miterlimit="10" cx="427.961" cy="121.999" r="21.545"/>
		
			<circle fill="#FFFFFF" stroke="#9EC04A" stroke-width="3" stroke-linecap="round" stroke-linejoin="round" stroke-miterlimit="10" cx="462.973" cy="110.328" r="22.443"/>
	</g>
</g>
<g id="Layer_5">
	
		<path opacity="0.2" fill="none" stroke="#9EC04A" stroke-width="3" stroke-linecap="round" stroke-linejoin="round" stroke-miterlimit="10" d="
		M417.884,485.857c0,0,38.201-21.286,42.377-25.52c4.176-4.234-1.519,7.056-1.519,7.056s-26.434,25.167-66.67,47.396
		c-13.127,7.25-48.59,66.683-48.59,66.683l-5.314,3.527c0,0,36.305-59.592,38.719-62.449c4.176-4.938,28.924-50.572,39.173-57.275
		s37.887-29.869,42.441-39.749c4.556-9.88,16.702-31.754,16.702-44.103s4.176,3.176,4.176,8.82c0,5.646-12.527,28.578-12.527,28.578
		l14.426-24.345c0,0,1.897,7.763-1.898,15.172s-13.666,16.229-13.666,16.229l12.527-9.879c0,0-1.139,9.526-3.416,14.113
		c-2.278,4.586-2.277,2.47-15.184,14.466c-12.908,11.995,13.285-6.821,13.285-6.821s1.898,3.881-3.037,10.584
		C464.953,455.046,417.884,485.857,417.884,485.857z"/>
	
		<path opacity="0.2" fill="none" stroke="#9EC04A" stroke-width="3" stroke-linecap="round" stroke-linejoin="round" stroke-miterlimit="10" d="
		M235.536,487.857c0,0-38.201-21.286-42.377-25.52c-4.176-4.234,1.519,7.056,1.519,7.056s26.434,25.167,66.67,47.396
		c13.127,7.25,48.59,66.683,48.59,66.683l5.314,3.527c0,0-36.305-59.592-38.719-62.449c-4.176-4.938-28.924-50.572-39.173-57.275
		s-37.887-29.869-42.441-39.749c-4.556-9.88-16.702-31.754-16.702-44.103s-4.176,3.176-4.176,8.82
		c0,5.646,12.527,28.578,12.527,28.578l-14.426-24.345c0,0-1.897,7.763,1.898,15.172s13.666,16.229,13.666,16.229l-12.527-9.879
		c0,0,1.139,9.526,3.416,14.113c2.278,4.586,2.277,2.47,15.184,14.466c12.908,11.995-14.285-7.821-14.285-7.821
		s-1.898,3.881,3.037,10.584C187.467,456.046,235.536,487.857,235.536,487.857z"/>
</g>
</svg>
