<?xml version="1.0" encoding="utf-8"?>
<!-- Generator: Adobe Illustrator 16.0.4, SVG Export Plug-In . SVG Version: 6.00 Build 0)  -->
<!DOCTYPE svg PUBLIC "-//W3C//DTD SVG 1.1//EN" "http://www.w3.org/Graphics/SVG/1.1/DTD/svg11.dtd">
<svg version="1.1" xmlns="http://www.w3.org/2000/svg" xmlns:xlink="http://www.w3.org/1999/xlink" x="0px" y="0px"
	 width="357.121px" height="267.121px" viewBox="0 0 357.121 267.121" enable-background="new 0 0 357.121 267.121"
	 xml:space="preserve">
<g id="Layer_2" display="none">
</g>
<g id="Layer_3">
</g>
<g id="Layer_1">
</g>
<g id="Layer_4">
	
		<path fill="none" stroke="#697733" stroke-width="3.487" stroke-linecap="round" stroke-linejoin="round" stroke-miterlimit="10" d="
		M216.457,176.935H89.741c0,0-14.076,0-14.076,14.08c0,14.078,14.076,14.078,14.076,14.078h77.438c0,0,14.08,0,14.08,14.079
		c0,14.08-14.08,14.08-14.08,14.08h-49.276"/>
	
		<line fill="none" stroke="#697733" stroke-width="3.487" stroke-linecap="round" stroke-linejoin="round" stroke-miterlimit="10" x1="105.71" y1="233.252" x2="91.632" y2="233.252"/>
	
		<line fill="none" stroke="#697733" stroke-width="3.487" stroke-linecap="round" stroke-linejoin="round" stroke-miterlimit="10" x1="77.552" y1="233.252" x2="70.514" y2="233.252"/>
	
		<path fill="none" stroke="#697733" stroke-width="3.487" stroke-linecap="round" stroke-linejoin="round" stroke-miterlimit="10" d="
		M167.179,148.775h77.438c0,0,14.078,0,14.078,14.079c0,14.08-14.078,14.08-14.078,14.08h-49.277"/>
	
		<circle fill="#FEE37E" stroke="#697733" stroke-width="3.487" stroke-linecap="round" stroke-linejoin="round" stroke-miterlimit="10" cx="149.58" cy="145.256" r="17.599"/>
	
		<circle fill="#FEE37E" stroke="#697733" stroke-width="3.487" stroke-linecap="round" stroke-linejoin="round" stroke-miterlimit="10" cx="205.898" cy="180.454" r="17.6"/>
	
		<path fill="none" stroke="#697733" stroke-width="3.487" stroke-linecap="round" stroke-linejoin="round" stroke-miterlimit="10" d="
		M202.379,113.577h-98.558c0,0-14.08,0-14.08,14.08c0,14.079,14.08,14.079,14.08,14.079h28.16"/>
	
		<path fill="none" stroke="#697733" stroke-width="3.487" stroke-linecap="round" stroke-linejoin="round" stroke-miterlimit="10" d="
		M188.298,78.379h77.437c0,0,14.08,0,14.08,14.079c0,14.08-14.08,14.08-14.08,14.08h-49.277"/>
	
		<circle fill="#FEE37E" stroke="#697733" stroke-width="3.487" stroke-linecap="round" stroke-linejoin="round" stroke-miterlimit="10" cx="170.699" cy="74.858" r="17.599"/>
	
		<circle fill="#FEE37E" stroke="#697733" stroke-width="3.487" stroke-linecap="round" stroke-linejoin="round" stroke-miterlimit="10" cx="212.938" cy="117.097" r="17.599"/>
</g>
<g id="Layer_5">
</g>
</svg>
